<?xml version="1.0" standalone="no"?>
<!DOCTYPE svg PUBLIC "-//W3C//DTD SVG 20010904//EN"
 "http://www.w3.org/TR/2001/REC-SVG-20010904/DTD/svg10.dtd">
<svg version="1.0" xmlns="http://www.w3.org/2000/svg"
 width="225.000000pt" height="225.000000pt" viewBox="0 0 225.000000 225.000000"
 preserveAspectRatio="xMidYMid meet">
<metadata>
Created by potrace 1.16, written by Peter Selinger 2001-2019
</metadata>
<g transform="translate(0.000000,225.000000) scale(0.100000,-0.100000)"
fill="#000000" stroke="none">
<path d="M579 1522 c-117 -44 -191 -112 -243 -221 -29 -61 -31 -74 -31 -172 0
-101 1 -108 38 -181 62 -126 176 -209 310 -228 75 -11 133 -5 213 22 l61 20
45 -20 45 -20 32 21 32 20 -30 31 c-17 18 -31 35 -31 40 0 4 13 24 30 44 92
116 109 298 40 439 -36 74 -115 149 -198 190 -50 24 -70 28 -162 30 -80 2
-116 -2 -151 -15z m269 -111 c65 -33 118 -87 149 -149 23 -47 28 -70 28 -132
0 -62 -5 -85 -28 -132 -30 -62 -83 -115 -149 -150 -36 -19 -58 -23 -133 -23
-75 0 -97 4 -133 23 -222 118 -242 402 -38 540 65 43 98 52 186 48 53 -2 88
-9 118 -25z"/>
<path d="M624 1384 c-23 -8 -60 -31 -83 -51 -153 -130 -120 -362 64 -449 121
-57 288 -6 346 107 l19 39 -62 0 c-54 0 -66 -4 -90 -27 -23 -22 -39 -28 -91
-31 -72 -4 -114 16 -147 70 l-20 33 213 5 212 5 -1 57 c-4 180 -187 303 -360
242z m176 -116 c41 -29 75 -72 66 -87 -9 -13 -292 -15 -300 -2 -10 15 38 75
74 93 50 25 119 23 160 -4z"/>
<path d="M1437 912 c-23 -26 -22 -94 1 -115 23 -21 61 -22 90 -1 29 20 31 93
4 117 -25 22 -75 21 -95 -1z"/>
</g>
</svg>
